<?xml version="1.0" encoding="utf-8"?>
<!-- Generator: Adobe Illustrator 19.0.0, SVG Export Plug-In . SVG Version: 6.00 Build 0)  -->
<svg version="1.1" id="Layer_1" xmlns="http://www.w3.org/2000/svg" xmlns:xlink="http://www.w3.org/1999/xlink" x="0px" y="0px"
	 viewBox="0 0 547.1 427.1" style="enable-background:new 0 0 547.1 427.1;" xml:space="preserve">
<style type="text/css">
	.st0{fill:#154F8F;}
</style>
<path id="XMLID_3_" class="st0" d="M144.2,349.9l37.4-91.3c16.8,11.7,31.7,20.3,44.9,25.7c13.1,5.4,25.4,8.1,36.8,8.1
	c8,0,14.3-1.5,18.9-4.6c4.6-3,6.9-7.1,6.9-12.4c0-9-11.5-15.9-34.5-20.7c-7.4-1.6-13.2-2.9-17.4-3.8c-24.3-5.9-43-16.5-55.9-31.6
	c-12.9-15.1-19.4-34-19.4-56.5c0-35,12.5-63.5,37.6-85.5c25.1-22,57.9-32.9,98.6-32.9c18.7,0,37.1,2.5,55.2,7.4
	c18.1,4.9,36.4,12.3,54.7,22.3l-35.6,85.2c-11.3-8.3-22.6-14.7-33.9-19c-11.3-4.4-22.4-6.6-33.1-6.6c-8.2,0-14.5,1.4-18.9,4.1
	c-4.5,2.7-6.7,6.6-6.7,11.5c0,9.2,16.3,17.3,48.7,24.3c5.2,1.2,9.2,2.1,12,2.7c22.4,5,40.1,15.4,53,30.9
	c12.9,15.6,19.4,34.4,19.4,56.5c0,36.1-13,65.5-39.1,88.4c-26,22.9-59.9,34.3-101.6,34.3c-21.4,0-42.7-3-64.1-9.1
	C186.9,371.2,165.5,362.1,144.2,349.9"/>
<path id="XMLID_2_" class="st0" d="M64,333.6c-12.9-42.4,34.7-118.3,95.3-170.5c-84.1,60.9-148.6,146-135.2,189.8
	c13.3,43.8,88.8,50.7,183.6,24.8C135,390.3,76.9,376,64,333.6"/>
<path id="XMLID_1_" class="st0" d="M523.6,43.9c-20-41.7-95.1-37.7-186.2,3.4c70.8-24.2,129.4-17.9,148.8,22.4
	c19.3,40.3-19.9,123.7-73,184.9C488.8,180.9,543.6,85.6,523.6,43.9"/>
</svg>
